<svg width="1200" height="1600" viewBox="0 0 1200 1600" xmlns="http://www.w3.org/2000/svg">
  <defs>
    <linearGradient id="bg2" x1="0" y1="0" x2="0" y2="1">
      <stop offset="0%" stop-color="#6a4bcf"></stop>
      <stop offset="45%" stop-color="#8e6dfd"></stop>
      <stop offset="100%" stop-color="#ffffff"></stop>
    </linearGradient>
    <linearGradient id="bars" x1="0" y1="1" x2="0" y2="0">
      <stop offset="0%" stop-color="#ffffff" stop-opacity="0.0"></stop>
      <stop offset="100%" stop-color="#ffffff" stop-opacity="0.55"></stop>
    </linearGradient>
    <radialGradient id="spot" cx="0.15" cy="0.2" r="0.6">
      <stop offset="0%" stop-color="#bba8ff" stop-opacity="0.5"></stop>
      <stop offset="100%" stop-color="#bba8ff" stop-opacity="0"></stop>
    </radialGradient>
  </defs>

  <rect width="1200" height="1600" fill="url(#bg2)"></rect>
  <circle cx="200" cy="180" r="420" fill="url(#spot)"></circle>

  <!-- колони / растеж -->
  <g transform="translate(160,900)" fill="url(#bars)">
    <rect x="0" y="260" width="100" height="260" rx="14"></rect>
    <rect x="140" y="200" width="100" height="320" rx="14"></rect>
    <rect x="280" y="140" width="100" height="380" rx="14"></rect>
    <rect x="420" y="80" width="100" height="440" rx="14"></rect>
    <rect x="560" y="40" width="100" height="480" rx="14"></rect>
    <rect x="700" y="0" width="100" height="520" rx="14"></rect>
  </g>

  <!-- контур на „вълна“ -->
  <path d="M0,1200 C300,1100 400,1300 700,1220 C950,1150 1100,1260 1200,1200 L1200,1600 L0,1600 Z" fill="#ffffff" opacity="0.22"></path>
</svg>
